#!OML:ASF F:\VICON\USERDATA\INSTALL\rory3\rory3.ASF
:FULLY-SPECIFIED
:DEGREES
3881
root 0.254408 17.9155 -2.95795 1261.84 56.2766 -540.924
lowerback 12.0083 -4.47255 -3.0944
upperback 1.62675 -5.95078 4.22067
thorax -4.21723 -2.81385 7.08297
lowerneck 8.64191 -23.0951 -15.8824
upperneck 37.1474 -32.5828 6.89223
head 15.993 -15.1531 1.01908
rclavicle 6.06293e-014 -7.95139e-016
rhumerus -40.1137 -16.5216 -74.1726
rradius 38.4555
rwrist 3.19917
rhand -13.3978 8.80357
rfingers 7.12502
rthumb 12.7097 -20.7897
lclavicle 6.06293e-014 -7.95139e-016
lhumerus -43.4683 18.5349 71.2045
lradius 33.4836
lwrist -0.828647
lhand -21.1138 27.3652
lfingers 7.12502
lthumb 5.26448 57.2798
rfemur -5.06737 6.57433 18.1866
rtibia 29.9326
rfoot -16.8894 -3.04296
rtoes -14.56
lfemur -18.0919 -4.32941 -15.0354
ltibia 19.3807
lfoot -0.657965 -5.93132
ltoes -1.68793
3882
root 0.192034 17.9202 -2.87075 1262.18 56.6908 -540.748
lowerback 12.0249 -4.35712 -2.9802
upperback 1.6437 -5.77633 4.28255
thorax -4.23788 -2.72672 7.06256
lowerneck 8.58051 -23.0856 -15.9209
upperneck 37.1678 -32.5978 6.99039
head 16.0532 -15.1491 1.04228
rclavicle 2.90226e-014 -3.97569e-015
rhumerus -39.7666 -16.2226 -74.3015
rradius 38.929
rwrist 3.09108
rhand -13.3684 8.89397
rfingers 7.12502
rthumb 12.738 -20.6975
lclavicle 2.90226e-014 -3.97569e-015
lhumerus -43.4924 18.6024 71.3528
lradius 33.2365
lwrist -0.759244
lhand -21.0327 27.5311
lfingers 7.12502
lthumb 5.34274 57.4438
rfemur -5.60805 5.83328 18.3245
rtibia 29.6347
rfoot -17.104 -2.62177
rtoes -13.3859
lfemur -18.4199 -4.59372 -14.623
ltibia 19.1618
lfoot -0.438025 -5.10796
ltoes -2.3785
3883
root 0.127955 17.9237 -2.78273 1262.3 57.1424 -540.726
lowerback 12.1646 -4.22642 -3.04419
upperback 1.68049 -5.60564 4.3408
thorax -4.28724 -2.638 7.1504
lowerneck 8.59074 -23.0653 -15.9089
upperneck 37.069 -32.6131 7.1587
head 16.0435 -15.1458 1.10286
rclavicle -4.17448e-014 6.59965e-014
rhumerus -39.3978 -16.0825 -74.4368
rradius 39.383
rwrist 3.05706
rhand -13.4519 9.03863
rfingers 7.12502
rthumb 12.6576 -20.5578
lclavicle -4.17448e-014 6.59965e-014
lhumerus -43.6147 19.0102 71.373
lradius 33.0453
lwrist -1.11222
lhand -21.0768 27.6729
lfingers 7.12502
lthumb 5.30023 57.5866
rfemur -6.13644 5.28745 18.3959
rtibia 29.5166
rfoot -17.3522 -2.21503
rtoes -12.2235
lfemur -18.6061 -4.9001 -14.3053
ltibia 18.9548
lfoot -0.64039 -3.95891
ltoes -3.80646
3884
root 0.0628314 17.9216 -2.69567 1262.48 57.6124 -540.614
lowerback 12.3299 -4.08746 -3.04005
upperback 1.6857 -5.41807 4.36851
thorax -4.39687 -2.53962 7.16877
lowerneck 8.63774 -23.0702 -15.7876
upperneck 37.0461 -32.635 7.23401
head 16.0194 -15.1391 1.12565
rclavicle -2.88238e-014 -6.12257e-014
rhumerus -39.0979 -15.9126 -74.5786
rradius 39.8934
rwrist 2.98226
rhand -13.4542 8.84125
rfingers 7.12502
rthumb 12.6553 -20.7553
lclavicle -2.88238e-014 -6.12257e-014
lhumerus -43.7936 19.2711 71.3585
lradius 32.8801
lwrist -1.49444
lhand -20.9937 27.6369
lfingers 7.12502
lthumb 5.3804 57.5486
rfemur -6.65036 5.08228 18.5458
rtibia 29.4295
rfoot -17.4335 -2.04846
rtoes -11.8598
lfemur -18.7318 -5.13981 -13.937
ltibia 18.7505
lfoot -1.40759 -2.79365
ltoes -5.87424
3885
root -0.00978632 17.9141 -2.59413 1262.63 57.8344 -540.546
lowerback 12.6824 -3.98566 -3.09353
upperback 1.65661 -5.2894 4.38245
thorax -4.63373 -2.46384 7.23281
lowerneck 8.49185 -23.1562 -15.4817
upperneck 37.1616 -32.7007 7.07332
head 16.008 -15.1357 1.01329
rclavicle 6.16232e-014 -4.85035e-014
rhumerus -38.8188 -15.6065 -74.8072
rradius 40.4914
rwrist 2.67478
rhand -13.5534 8.41233
rfingers 7.12502
rthumb 12.5597 -21.1902
lclavicle 6.16232e-014 -4.85035e-014
lhumerus -43.864 19.0487 71.5543
lradius 32.7654
lwrist -1.52235
lhand -20.7517 27.2869
lfingers 7.12502
lthumb 5.61408 57.1926
rfemur -7.22929 5.23085 18.7784
rtibia 29.4102
rfoot -17.2644 -2.40707
rtoes -12.0465
lfemur -18.9928 -5.01243 -13.6205
ltibia 18.6012
lfoot -2.31313 -2.34265
ltoes -7.59485
3886
root -0.05602 17.9156 -2.53426 1261.94 58.4563 -541.31
lowerback 12.432 -3.75754 -3.26798
upperback 1.83431 -5.02889 4.12787
thorax -4.35333 -2.34994 6.98699
lowerneck 8.45738 -23.2849 -15.105
upperneck 37.1115 -32.8792 7.09072
head 15.9376 -15.1736 0.957093
rclavicle 5.62561e-014 -3.02153e-014
rhumerus -38.4796 -15.7262 -74.9902
rradius 40.9205
rwrist 2.62366
rhand -13.6595 8.46327
rfingers 7.12502
rthumb 12.4574 -21.1455
lclavicle 5.62561e-014 -3.02153e-014
lhumerus -43.8021 18.5855 71.8322
lradius 32.7053
lwrist -1.44472
lhand -20.848 27.0263
lfingers 7.12502
lthumb 5.52106 56.9344
rfemur -7.47478 5.28825 18.291
rtibia 29.3944
rfoot -17.5145 -1.8897
rtoes -10.65
lfemur -18.7166 -4.78531 -13.9668
ltibia 18.5021
lfoot -3.43703 -1.69852
ltoes -8.27433
3887
root -0.114514 17.9114 -2.44912 1261.73 58.764 -541.549
lowerback 12.4398 -3.77613 -3.40177
upperback 1.92145 -5.0749 4.06555
thorax -4.25288 -2.3766 6.99785
lowerneck 8.62081 -23.189 -15.1956
upperneck 36.9494 -32.8328 7.37273
head 15.9096 -15.1607 1.09929
rclavicle -7.17613e-014 -1.03368e-014
rhumerus -38.002 -15.6894 -75.2041
rradius 41.2593
rwrist 2.90449
rhand -13.4457 9.00803
rfingers 7.12502
rthumb 12.6635 -20.5881
lclavicle -7.17613e-014 -1.03368e-014
lhumerus -43.9916 18.502 71.9385
lradius 32.7491
lwrist -1.40801
lhand -21.001 26.9827
lfingers 7.12502
lthumb 5.37337 56.8946
rfemur -7.84937 5.47541 18.2121
rtibia 29.3954
rfoot -17.6101 -1.47165
rtoes -8.78939
lfemur -18.672 -4.20863 -14.0232
ltibia 18.5332
lfoot -4.32345 -1.6405
ltoes -9.00073
3888
root -0.176133 17.9077 -2.36768 1261.22 59.1113 -542.054
lowerback 12.6322 -3.96119 -3.8303
upperback 1.92342 -5.37499 4.15945
thorax -4.26361 -2.51885 7.4014
lowerneck 8.69608 -22.8691 -15.7831
upperneck 37.0109 -32.4067 7.39759
head 15.9944 -15.0455 1.24243
rclavicle 1.28017e-013 -6.12257e-014
rhumerus -37.4788 -14.7444 -75.4462
rradius 41.7331
rwrist 2.82091
rhand -13.1654 9.18604
rfingers 7.12502
rthumb 12.9338 -20.3931
lclavicle 1.28017e-013 -6.12257e-014
lhumerus -44.627 19.1672 71.976
lradius 32.8502
lwrist -1.43754
lhand -20.9151 26.9651
lfingers 7.12502
lthumb 5.45636 56.8748
rfemur -8.11982 5.62897 17.972
rtibia 29.3405
rfoot -17.7267 -1.11084
rtoes -8.44308
lfemur -18.4818 -3.87696 -14.2437
ltibia 18.7202
lfoot -5.34155 -1.11282
ltoes -10.8371
3889
root -0.237876 17.9036 -2.29057 1260.98 59.3255 -542.29
lowerback 12.7414 -4.09574 -4.00592
upperback 1.94743 -5.57172 4.24453
thorax -4.24194 -2.61418 7.62867
lowerneck 8.76934 -22.6729 -16.1416
upperneck 37.0462 -32.1498 7.43842
head 16.0464 -14.976 1.34323
rclavicle -6.38099e-014 8.74653e-015
rhumerus -37.0209 -13.8312 -75.7196
rradius 42.3567
rwrist 2.23944
rhand -13.3329 8.90655
rfingers 7.12502
rthumb 12.7723 -20.6828
lclavicle -6.38099e-014 8.74653e-015
lhumerus -44.9757 19.3209 72.322
lradius 32.9902
lwrist -1.39028
lhand -20.9135 27.2822
lfingers 7.12502
lthumb 5.45785 57.1919
rfemur -8.43672 5.62152 17.9057
rtibia 29.3089
rfoot -17.9036 -0.862782
rtoes -9.07979
lfemur -18.411 -3.37706 -14.4043
ltibia 19.1451
lfoot -6.29836 -0.718661
ltoes -13.1445
3890
root -0.301478 17.9045 -2.21195 1260.71 59.4314 -542.56
lowerback 12.8504 -4.14978 -4.1446
upperback 1.98884 -5.66119 4.26099
thorax -4.22813 -2.65727 7.7456
lowerneck 8.87731 -22.6294 -16.2318
upperneck 37.0369 -32.109 7.49774
head 16.0501 -14.9711 1.39322
rclavicle -1.3736e-013 2.06736e-014
rhumerus -36.6422 -13.1688 -75.9009
rradius 42.9925
rwrist 1.56628
rhand -13.6904 8.77129
rfingers 7.12502
rthumb 12.4276 -20.8393
lclavicle -1.3736e-013 2.06736e-014
lhumerus -44.9895 18.8836 72.8561
lradius 33.0509
lwrist -1.4133
lhand -20.6856 27.414
lfingers 7.12502
lthumb 5.67793 57.3179
rfemur -8.7345 5.69296 17.8662
rtibia 29.2557
rfoot -17.9071 -0.908883
rtoes -9.20672
lfemur -18.4145 -2.7831 -14.6274
ltibia 19.8123
lfoot -7.09515 -0.675878
ltoes -13.9514
